<svg version="1.1" id="Layer_1" xmlns="http://www.w3.org/2000/svg" xmlns:xlink="http://www.w3.org/1999/xlink" x="0px" y="0px"
	 width="100%" viewBox="0 0 637 635" enable-background="new 0 0 637 635" xml:space="preserve">
<path fill="#FDFFFF" opacity="1.000000" stroke="none" 
	d="
M1.000001,245.000000 
	C1.000000,163.681305 1.000000,82.362625 1.000000,1.021968 
	C213.280457,1.021968 425.560913,1.021968 637.920654,1.021968 
	C637.920654,212.575653 637.920654,424.151367 637.920654,635.863525 
	C425.666718,635.863525 213.333374,635.863525 1.000000,635.863525 
	C1.000000,554.235168 1.000000,472.582611 1.380898,390.575439 
	C3.383891,394.038727 4.580675,398.112457 6.698135,401.632355 
	C19.072054,422.201965 50.335899,420.295807 60.198833,397.755676 
	C60.783726,396.419006 63.031036,395.057343 64.548210,395.006622 
	C72.703781,394.733765 80.877762,395.032928 89.035622,394.796967 
	C92.750435,394.689484 94.738510,395.552368 96.486122,399.333557 
	C102.549706,412.452850 117.892685,418.880341 131.823563,414.792725 
	C145.748459,410.706848 154.863541,397.005035 153.208298,382.647064 
	C151.621185,368.879974 141.794128,358.210266 128.655945,355.989288 
	C114.799515,353.646973 101.698952,360.390411 95.891907,373.237274 
	C94.588493,376.120819 93.172806,377.150482 90.023476,377.054688 
	C82.032913,376.811584 74.021896,376.763977 66.035721,377.071136 
	C62.472820,377.208099 60.887672,375.894012 59.414608,372.795013 
	C50.168983,353.343903 24.656996,349.306915 10.311591,365.381195 
	C6.183532,370.006775 4.048707,376.411163 1.000004,382.000000 
	C1.000000,340.643341 1.000000,299.286682 1.259978,257.677856 
	C2.300322,258.953186 3.080688,260.480682 3.988601,262.152954 
	C4.116149,262.297791 4.111906,262.683716 4.135390,262.938416 
	C4.368311,263.452332 4.577748,263.711517 4.910186,264.176575 
	C5.033187,264.382477 5.047370,264.861938 5.092843,265.085541 
	C5.259177,265.604553 5.462976,265.822327 5.897090,266.121857 
	C6.044466,266.281250 6.098277,266.712067 6.148372,266.981934 
	C6.451776,267.505066 6.705084,267.758331 6.983611,268.010681 
	C7.008828,268.009796 6.982450,268.052856 7.061466,268.252563 
	C7.290210,268.706085 7.495496,268.901581 8.038850,269.228668 
	C23.962645,287.743011 49.006702,284.535400 60.118721,262.907684 
	C60.812649,261.557068 62.965187,260.202911 64.481674,260.153412 
	C72.636337,259.887024 80.809128,260.196381 88.965866,259.963562 
	C92.674866,259.857697 94.672615,260.673096 96.434357,264.475067 
	C102.563683,277.702545 117.837662,284.147552 131.676010,280.017639 
	C145.817184,275.797333 154.758331,262.484314 153.175400,248.005798 
	C151.683075,234.355789 142.015579,223.753326 128.737289,221.204132 
	C115.588409,218.679779 102.021851,225.442703 96.133789,238.012497 
	C94.577408,241.335068 92.821426,242.314026 89.401764,242.221497 
	C81.410667,242.005249 73.407631,242.036224 65.414268,242.201492 
	C62.563297,242.260437 61.356762,241.079941 59.686886,238.788406 
	C56.042919,233.787888 52.231819,228.320969 47.189945,225.042282 
	C34.263454,216.636368 14.320293,220.033844 4.571961,238.191422 
	C4.167697,238.627426 4.075239,238.940155 4.106316,239.487213 
	C4.109298,239.685867 3.855639,239.991714 3.565921,240.169891 
	C2.517469,241.898697 1.758735,243.449356 1.000001,245.000000 
M555.558838,199.987930 
	C555.687561,200.093552 555.811035,200.206482 555.945740,200.303772 
	C571.206177,211.323181 590.374939,208.285843 600.168701,193.297516 
	C609.733643,178.659378 604.976440,158.985031 589.809753,150.456253 
	C574.014893,141.574203 555.362671,147.780548 547.206665,164.919785 
	C545.860840,167.748093 544.118347,167.831192 541.720154,167.828033 
	C519.733032,167.799149 497.745941,167.816650 475.758881,167.792664 
	C474.330994,167.791107 472.903381,167.558838 471.474884,167.433823 
	C471.329010,166.314285 471.170776,165.664856 471.170380,165.015335 
	C471.157074,142.195404 471.245056,119.374763 471.062622,96.556282 
	C471.035980,93.225746 472.829437,92.388672 475.167877,91.277527 
	C488.127716,85.119560 494.908081,71.057358 491.671234,57.253269 
	C488.395264,43.282085 476.431183,33.928612 461.890015,33.970367 
	C447.789459,34.010857 435.792053,43.687801 432.808136,57.427383 
	C429.731049,71.596199 436.370300,85.448174 449.406586,91.308647 
	C452.503845,92.701027 453.453979,94.363029 453.435944,97.670967 
	C453.297974,122.988686 453.326721,148.307587 453.383240,173.625946 
	C453.403473,182.694016 456.394653,185.578995 465.410828,185.581924 
	C490.396179,185.590042 515.381836,185.645813 540.366516,185.516785 
	C544.053406,185.497757 546.302979,186.122070 547.950317,190.004532 
	C549.449707,193.538177 552.601135,196.370834 555.558838,199.987930 
M179.857895,184.699081 
	C183.940048,182.472610 184.684143,178.784256 184.672134,174.515427 
	C184.599930,148.852829 184.679428,123.189758 184.581985,97.527321 
	C184.570602,94.524727 185.244492,92.853172 188.269272,91.493652 
	C201.503204,85.545540 208.363342,71.590782 205.257675,57.760330 
	C202.066681,43.549847 190.233551,33.964291 175.880524,33.963058 
	C161.515167,33.961819 149.316269,43.655964 146.246902,57.512081 
	C143.128540,71.589363 150.008575,85.425407 163.503128,91.559692 
	C166.256226,92.811180 167.042053,94.304260 167.028687,97.160240 
	C166.924301,119.489716 166.971207,141.819885 166.957123,164.149841 
	C166.956406,165.270370 166.823639,166.390808 166.753006,167.501083 
	C165.961945,167.703064 165.499680,167.923920 165.037186,167.924408 
	C141.707458,167.948883 118.377129,168.019699 95.049355,167.809845 
	C93.556183,167.796417 91.449005,165.902466 90.699570,164.361816 
	C84.261398,151.126465 70.352180,144.093445 56.330067,147.261368 
	C42.916924,150.291702 33.091175,162.407654 32.971214,176.064697 
	C32.840549,190.940628 41.975903,202.696182 56.415588,206.233459 
	C69.535011,209.447296 84.056274,202.926697 89.861259,190.450089 
	C91.794998,186.293945 94.088455,185.474945 98.183037,185.502350 
	C123.011520,185.668533 147.841705,185.598816 172.671234,185.558243 
	C174.816269,185.554749 176.960724,185.190994 179.857895,184.699081 
M196.393173,594.909180 
	C212.166412,578.360718 208.183258,554.787109 187.779556,545.137451 
	C184.778320,543.718079 184.616730,541.869629 184.619751,539.272522 
	C184.649399,513.787842 184.649490,488.303162 184.613525,462.818542 
	C184.602264,454.837769 181.711014,451.975616 173.773270,451.967987 
	C153.951813,451.948944 134.130341,451.960999 114.308868,451.960663 
	C107.003448,451.960541 99.698029,451.960663 92.523613,451.960663 
	C91.996162,450.830963 91.616318,450.090057 91.297447,449.323761 
	C85.541313,435.489746 72.311760,427.851288 58.143353,430.189392 
	C44.544777,432.433472 33.601368,444.281738 32.986431,457.426422 
	C32.267284,472.798615 41.008739,485.377716 55.010468,489.119476 
	C69.408417,492.967102 83.154442,486.855316 90.071701,473.169708 
	C91.524590,470.295166 93.198715,469.503448 96.214577,469.519135 
	C118.200836,469.633636 140.187943,469.581177 162.174759,469.605682 
	C163.614975,469.607300 165.054962,469.809662 166.724396,469.935974 
	C166.724396,494.711395 166.724396,519.146973 166.724396,543.593750 
	C166.091965,543.941772 165.534271,544.322083 164.923584,544.573853 
	C152.534348,549.680481 145.854980,559.173279 145.619492,572.309265 
	C145.395767,584.788269 151.297134,594.476013 162.770782,599.930420 
	C174.629120,605.567627 185.737320,603.569275 196.393173,594.909180 
M557.721252,435.124847 
	C554.181091,439.450867 550.052124,443.441650 547.325256,448.230713 
	C545.731079,451.030457 544.482666,452.020447 541.464600,452.009979 
	C516.136597,451.921875 490.808197,451.953888 465.479919,451.961548 
	C456.056610,451.964417 453.378662,454.661407 453.370911,464.223083 
	C453.350861,488.884857 453.298370,513.546936 453.418457,538.208069 
	C453.436523,541.917114 452.622162,544.010010 448.842163,545.749634 
	C436.058167,551.633362 429.628387,565.739136 432.810913,579.481201 
	C436.050568,593.470032 448.255188,603.151001 462.467926,603.005798 
	C476.417816,602.863281 488.241516,593.274963 491.604797,579.377441 
	C494.860229,565.925781 488.190308,551.533447 475.368774,545.678528 
	C471.756531,544.028992 471.069366,542.074158 471.092102,538.569763 
	C471.228210,517.574829 471.161499,496.578583 471.162750,475.582794 
	C471.162842,473.794983 471.162781,472.007172 471.162781,470.116699 
	C472.507507,469.880096 473.298340,469.620239 474.089447,469.619354 
	C497.084808,469.593475 520.081055,469.514374 543.073792,469.758179 
	C544.694336,469.775330 546.904541,471.879242 547.797729,473.565277 
	C554.275574,485.793579 567.800354,492.575897 580.862793,489.600464 
	C593.861389,486.639587 602.067261,478.440552 604.514648,465.449097 
	C606.801575,453.309937 602.744507,442.850983 592.587524,435.646179 
	C581.595764,427.849304 569.954712,427.844147 557.721252,435.124847 
M304.864410,199.500000 
	C304.864716,191.839233 304.924316,184.177902 304.848785,176.517883 
	C304.772400,168.770294 298.739349,163.237946 290.446838,163.164703 
	C282.131775,163.091278 276.006104,168.545242 276.001251,176.391571 
	C275.957214,247.669235 275.940308,318.947021 276.094574,390.224365 
	C276.100525,392.975159 277.338196,396.162598 279.015656,398.379456 
	C282.558777,403.061859 290.411163,404.402588 296.447845,402.059906 
	C302.459045,399.727112 304.865723,395.990814 304.866241,388.852966 
	C304.870850,326.068634 304.866211,263.284332 304.864410,199.500000 
M633.950928,396.228912 
	C639.152405,379.479156 632.072998,363.738464 616.608093,357.668335 
	C601.256714,351.642761 585.292297,358.520996 577.649841,374.213135 
	C577.009094,375.528778 574.807190,376.805115 573.291138,376.853180 
	C565.140015,377.111511 556.974243,376.866852 548.818115,377.028259 
	C545.523804,377.093445 543.655762,376.408569 542.091675,372.936005 
	C536.208496,359.873932 521.949646,353.132446 508.165009,356.283875 
	C494.197815,359.477051 484.793060,371.459991 484.846741,385.994537 
	C484.900238,400.467560 494.414490,412.188232 508.612427,415.271790 
	C522.562988,418.301605 536.287109,411.462738 542.266724,398.207581 
	C543.401489,395.692047 544.604004,394.747070 547.369873,394.810242 
	C555.691406,395.000305 564.024231,395.034332 572.343628,394.805573 
	C575.441162,394.720398 576.983826,395.672333 578.353943,398.507843 
	C584.044373,410.284058 593.644836,416.440460 606.720825,415.925110 
	C619.525269,415.420441 628.552368,408.783264 633.950928,396.228912 
M601.912598,221.058716 
	C590.908508,222.782455 582.787537,228.494186 578.216858,238.723160 
	C576.990967,241.466644 575.422058,242.264954 572.571350,242.198685 
	C564.915283,242.020767 557.247131,241.972153 549.594177,242.208298 
	C545.690918,242.328735 543.572937,241.349625 541.691711,237.418457 
	C534.776184,222.967041 517.927612,217.015686 503.098816,223.176544 
	C488.999603,229.034271 481.421875,245.457748 486.106049,260.005524 
	C489.844299,271.615601 500.078491,280.069611 511.558929,281.031067 
	C525.101196,282.165161 536.314880,276.053253 542.062622,263.905304 
	C543.511047,260.844116 545.131714,259.845459 548.414795,259.952057 
	C556.066956,260.200531 563.742004,260.253754 571.389038,259.936493 
	C575.232361,259.777008 577.060730,260.969696 578.843384,264.522949 
	C584.821350,276.438782 594.917847,281.994385 608.188110,281.029755 
	C620.686035,280.121307 629.444885,273.332397 633.829773,261.812317 
	C642.144043,239.968918 624.542664,218.861496 601.912598,221.058716 
M357.990143,517.244629 
	C359.352539,529.131836 365.388000,537.635437 376.223541,542.821228 
	C377.442200,543.404480 378.959503,545.011414 378.987091,546.175537 
	C379.211151,555.639160 379.113007,565.110474 379.113007,574.291565 
	C376.793304,575.393860 374.944916,576.168579 373.193237,577.121155 
	C360.603363,583.967224 354.647095,599.466187 359.287537,613.209167 
	C363.948822,627.013855 378.087921,635.653320 392.215790,633.329590 
	C406.007599,631.061157 416.012085,621.084106 417.893799,607.721985 
	C419.773926,594.371399 412.934113,581.804077 400.282440,576.022888 
	C397.723694,574.853638 396.907684,573.581177 396.972382,570.868164 
	C397.154938,563.207581 397.154694,555.536743 396.966614,547.876282 
	C396.894989,544.957458 397.846619,543.611877 400.589386,542.358826 
	C414.037689,536.214661 420.922058,522.044006 417.585480,508.126892 
	C413.882629,492.681976 399.862274,483.116577 383.774414,485.059387 
	C368.813416,486.866089 357.999817,499.981995 357.990143,517.244629 
M377.661224,4.936015 
	C365.369263,9.927022 358.360687,18.951946 357.903503,32.275864 
	C357.438568,45.826138 363.934021,55.319542 376.100220,61.232662 
	C377.536041,61.930515 378.916779,64.315216 378.988190,65.975388 
	C379.302795,73.287476 378.908112,80.630051 379.221985,87.942200 
	C379.381775,91.665604 378.131897,93.402657 374.737518,95.006180 
	C360.855957,101.563835 354.542847,117.700188 359.818665,132.118195 
	C365.133911,146.643921 380.228149,154.864700 395.030640,151.295670 
	C407.458008,148.299286 416.766113,138.094910 418.078430,126.028572 
	C419.607025,111.973717 413.055481,100.236046 400.587585,94.223328 
	C399.121277,93.516174 397.237610,91.693924 397.194122,90.335876 
	C396.896210,81.031891 397.037811,71.713829 397.037811,62.540199 
	C415.078796,53.498112 422.254272,38.483517 416.236755,22.802607 
	C410.306732,7.349602 394.896973,-0.020211 377.661224,4.936015 
M280.065643,124.263596 
	C280.675323,110.281982 274.647583,100.168449 262.052032,94.215584 
	C259.414307,92.968956 258.803192,91.515297 258.845642,88.919319 
	C258.968262,81.422714 259.051025,73.917152 258.801605,66.426689 
	C258.695129,63.229446 259.862732,61.824631 262.720917,60.561211 
	C271.300049,56.768894 276.791870,50.096985 279.146973,41.010014 
	C283.250824,25.175358 274.610718,9.488394 259.173920,4.542766 
	C243.787308,-0.386790 227.642792,7.428197 221.740128,22.663176 
	C216.045456,37.361309 222.878082,54.257214 237.496674,60.703972 
	C240.587936,62.067219 241.236877,63.726608 241.169464,66.692284 
	C241.010513,73.687416 240.895050,80.699158 241.216949,87.683220 
	C241.386658,91.365601 240.273041,93.261345 236.855453,94.860367 
	C226.684097,99.619308 221.013870,107.979385 220.022385,119.075974 
	C218.519409,135.897018 230.169739,149.978882 246.709854,151.903381 
	C263.214905,153.823807 277.157043,142.627304 280.065643,124.263596 
M245.324539,633.262756 
	C259.612366,635.565430 273.311340,627.651062 278.348755,614.077759 
	C280.806488,607.455383 280.987427,600.645691 278.747406,593.982910 
	C275.474915,584.249023 268.495941,577.926086 259.021454,574.442078 
	C259.021454,565.474731 259.165070,556.978821 258.948303,548.492126 
	C258.865570,545.251648 259.749878,543.608765 262.889374,542.173096 
	C278.738586,534.925354 284.949280,515.327820 276.455383,500.279144 
	C269.997559,488.837799 256.979004,482.769012 244.213257,485.249054 
	C231.733536,487.673523 221.812988,498.199768 220.111465,510.822418 
	C218.332504,524.019531 224.756363,536.280029 236.945435,541.942688 
	C240.218018,543.463013 241.313416,545.197998 241.195312,548.665527 
	C240.951584,555.822144 240.999542,562.996033 241.184250,570.156189 
	C241.261322,573.143677 240.571060,574.777710 237.536972,576.144775 
	C225.097000,581.749878 218.421524,594.048035 220.045914,607.435913 
	C221.610214,620.328613 231.115921,630.315063 245.324539,633.262756 
M237.154831,398.653625 
	C239.395798,396.417633 241.820389,394.331055 243.807434,391.888519 
	C244.962799,390.468292 246.078995,388.480042 246.086914,386.742218 
	C246.226761,356.083771 246.249283,325.424377 246.158417,294.765564 
	C246.134796,286.795441 240.686386,281.747314 232.797226,281.834808 
	C225.032669,281.920929 219.995529,287.339447 219.978500,295.920227 
	C219.926880,321.913696 219.898514,347.907654 220.033722,373.900513 
	C220.050842,377.190247 219.060883,379.470276 216.750336,381.736328 
	C206.044785,392.235779 195.371048,402.774902 184.983963,413.586182 
	C182.702148,415.961212 180.842361,419.341736 180.184982,422.545746 
	C179.013458,428.255768 182.349167,433.506073 187.549911,435.967560 
	C192.816162,438.460052 198.306732,437.434387 203.066193,432.722992 
	C214.315674,421.587189 225.466965,410.352142 237.154831,398.653625 
M342.607971,357.498108 
	C342.608551,360.494690 342.606445,363.491272 342.610992,366.487854 
	C342.613007,367.819550 342.567017,369.154938 342.647736,370.482300 
	C343.127686,378.375580 349.247528,384.103058 357.078949,384.022675 
	C364.803741,383.943359 371.040527,377.946320 371.097229,370.086792 
	C371.223389,352.607605 371.147247,335.126923 371.147369,317.646851 
	C371.147522,296.837250 371.199615,276.027374 371.110199,255.218140 
	C371.072083,246.340591 365.031708,240.675812 356.181305,240.864761 
	C347.887543,241.041824 342.627686,247.063263 342.618561,256.612579 
	C342.586761,289.907990 342.607117,323.203461 342.607971,357.498108 
M405.811218,291.500000 
	C405.806854,319.486938 405.779510,347.473907 405.813477,375.460785 
	C405.822540,382.935638 410.323639,388.648529 417.004486,389.961670 
	C426.799316,391.886902 434.591644,385.025116 434.615723,374.111023 
	C434.691101,339.960510 434.644196,305.809692 434.614868,271.659027 
	C434.613586,270.172485 434.445801,268.658997 434.137085,267.204407 
	C432.496674,259.474457 426.390869,255.090530 418.399689,255.826721 
	C410.999939,256.508392 405.909515,262.189117 405.828003,270.009735 
	C405.756836,276.839142 405.811829,283.669861 405.811218,291.500000 
M141.222946,120.454025 
	C144.277618,107.819176 139.525314,95.112450 129.093613,88.022514 
	C118.518143,80.834877 104.175346,81.120811 94.010765,88.721931 
	C83.774261,96.376823 79.461006,109.316711 83.047684,121.611427 
	C86.702003,134.138016 98.118118,142.853989 111.193779,143.100388 
	C125.346748,143.367111 136.227295,135.413040 141.222946,120.454025 
M136.508835,506.073456 
	C135.519699,504.948761 134.579636,503.776093 133.533798,502.706879 
	C123.358902,492.303833 107.024010,490.638275 95.103714,498.767334 
	C83.019150,507.008423 78.476143,522.609009 84.291420,535.896545 
	C91.394753,552.127197 110.605316,558.820068 126.258240,550.517639 
	C142.128403,542.099976 146.840118,522.732300 136.508835,506.073456 
M495.956848,527.180420 
	C496.206299,528.482361 496.378998,529.804688 496.717133,531.083130 
	C500.025421,543.592163 508.176117,551.208069 520.758545,553.492004 
	C532.747131,555.668091 542.949829,551.671143 550.162415,541.847351 
	C557.602112,531.714233 558.281067,520.563843 552.428284,509.402618 
	C545.896179,496.945740 531.724609,491.076630 518.029541,494.740906 
	C503.848511,498.535187 495.495270,510.438141 495.956848,527.180420 
M311.126068,94.499992 
	C311.122742,108.644264 310.920959,122.793396 311.266663,136.929138 
	C311.345215,140.141113 312.485352,144.222595 314.673889,146.218399 
	C316.598572,147.973572 320.911407,148.306351 323.742767,147.587128 
	C327.867828,146.539261 329.066803,142.682159 329.059692,138.448700 
	C329.000153,103.004860 329.024170,67.560875 329.022095,32.116928 
	C329.021881,28.456062 329.096497,24.792881 328.991760,21.134914 
	C328.860077,16.535112 326.467133,13.691538 321.935638,12.799833 
	C317.321503,11.891865 313.463531,13.875587 312.024536,18.242712 
	C311.314728,20.396872 311.160156,22.810810 311.154388,25.108206 
	C311.097046,47.905342 311.123444,70.702698 311.126068,94.499992 
M562.500000,313.965729 
	C543.360779,313.967957 524.221497,313.938141 505.082367,313.989746 
	C498.339508,314.007904 494.317963,317.629822 494.522339,323.243469 
	C494.714111,328.510681 498.505310,331.794983 504.736420,331.818817 
	C521.379028,331.882477 538.021973,331.865265 554.664734,331.865479 
	C576.466797,331.865723 598.268921,331.871765 620.070923,331.830902 
	C626.020081,331.819733 629.575989,329.263184 630.474792,324.578217 
	C631.621521,318.601196 627.396301,314.012482 620.418335,313.986603 
	C601.445801,313.916260 582.472778,313.964478 562.500000,313.965729 
M495.826019,114.375969 
	C496.810120,127.660477 503.504089,136.843887 515.972839,141.418015 
	C527.922180,145.801605 540.779602,142.333862 548.953674,132.517731 
	C557.191711,122.624710 558.365845,111.437637 553.109558,99.842789 
	C547.471130,87.404968 533.234192,80.552940 519.935791,83.357292 
	C505.617218,86.376785 496.335602,97.950226 495.826019,114.375969 
M86.500000,313.966339 
	C85.002441,313.966339 83.504890,313.966370 82.007332,313.966339 
	C61.540398,313.965851 41.073414,313.938232 20.606565,313.979858 
	C13.663063,313.993958 9.810066,317.309814 9.840250,323.006714 
	C9.869098,328.451691 13.739019,331.842926 20.255957,331.848785 
	C58.693825,331.883453 97.131744,331.872314 135.569626,331.850281 
	C136.881943,331.849518 138.250778,331.759766 139.496521,331.387695 
	C145.031143,329.734497 147.603561,323.494965 144.743439,318.561829 
	C142.576050,314.823578 139.015869,313.905579 134.923218,313.924561 
	C119.115753,313.997864 103.307777,313.961670 86.500000,313.966339 
M311.126068,521.502075 
	C311.126068,537.474976 311.125488,553.447876 311.126251,569.420776 
	C311.127075,587.223877 311.067322,605.027344 311.162933,622.829956 
	C311.198242,629.401611 314.597382,633.114807 320.114288,633.154907 
	C325.784943,633.196106 329.011414,629.572754 329.014709,622.980103 
	C329.034027,584.378967 329.037811,545.777832 329.015045,507.176666 
	C329.011536,501.238464 325.391998,497.193115 320.257782,497.164734 
	C315.275269,497.137177 311.505219,500.853333 311.207397,506.530243 
	C310.963654,511.176605 311.137482,515.844849 311.126068,521.502075 
M406.960907,194.550522 
	C414.554413,200.926834 422.946808,201.766739 430.296997,196.886002 
	C437.105469,192.364990 440.101318,183.667679 437.396362,175.803818 
	C434.728882,168.048859 428.990784,163.817276 421.011383,163.358673 
	C413.694183,162.938126 407.619080,166.051697 404.106354,172.687576 
	C400.142731,180.175247 401.013336,187.412262 406.960907,194.550522 
M367.294281,440.050507 
	C365.491608,439.228302 363.754333,438.190887 361.875305,437.620148 
	C352.292572,434.709412 341.778442,440.598083 339.189667,450.220032 
	C336.486084,460.268738 342.609100,470.788696 352.433319,472.973846 
	C360.912323,474.859772 369.266083,471.117310 373.073975,463.726929 
	C377.256134,455.610168 375.401245,447.324707 367.294281,440.050507 
M374.150299,404.766846 
	C369.376099,393.916046 358.753510,389.565308 348.778168,394.375092 
	C339.618408,398.791595 335.913483,410.464508 340.787140,419.552032 
	C345.044800,427.490967 354.624390,431.179413 363.012329,428.109467 
	C372.429932,424.662659 376.660339,416.286682 374.150299,404.766846 
M401.877869,228.167877 
	C403.677673,237.324326 409.692871,243.300323 417.914886,244.100327 
	C426.227142,244.909134 433.734467,240.604660 436.902466,233.213394 
	C440.092865,225.769821 438.089874,217.219330 431.752350,211.942551 
	C425.950562,207.111786 419.296417,206.370056 412.570038,209.287476 
	C404.884369,212.621002 401.510345,218.969482 401.877869,228.167877 
z"/>
<path fill="#08A0D9" opacity="1.000000" stroke="none" 
	d="
M1.000004,382.444153 
	C4.048707,376.411163 6.183532,370.006775 10.311591,365.381195 
	C24.656996,349.306915 50.168983,353.343903 59.414608,372.795013 
	C60.887672,375.894012 62.472820,377.208099 66.035721,377.071136 
	C74.021896,376.763977 82.032913,376.811584 90.023476,377.054688 
	C93.172806,377.150482 94.588493,376.120819 95.891907,373.237274 
	C101.698952,360.390411 114.799515,353.646973 128.655945,355.989288 
	C141.794128,358.210266 151.621185,368.879974 153.208298,382.647064 
	C154.863541,397.005035 145.748459,410.706848 131.823563,414.792725 
	C117.892685,418.880341 102.549706,412.452850 96.486122,399.333557 
	C94.738510,395.552368 92.750435,394.689484 89.035622,394.796967 
	C80.877762,395.032928 72.703781,394.733765 64.548210,395.006622 
	C63.031036,395.057343 60.783726,396.419006 60.198833,397.755676 
	C50.335899,420.295807 19.072054,422.201965 6.698135,401.632355 
	C4.580675,398.112457 3.383891,394.038727 1.380898,390.110413 
	C1.000000,387.629425 1.000000,385.258881 1.000004,382.444153 
M121.918709,373.381561 
	C120.956017,373.639374 119.956139,373.803864 119.036690,374.170166 
	C113.204453,376.493896 110.004944,382.132019 111.079208,388.104828 
	C112.112045,393.847321 117.098862,398.029663 123.051422,398.145691 
	C129.218781,398.265869 134.069199,394.334503 135.475281,388.075836 
	C137.154617,380.600861 131.776413,374.376526 121.918709,373.381561 
M44.859516,385.519440 
	C44.287529,383.631531 43.973217,381.612549 43.092762,379.881561 
	C40.901318,375.573059 35.558247,372.789825 31.131258,373.354248 
	C25.818502,374.031555 21.376280,377.933960 20.210388,382.948059 
	C19.014744,388.090118 21.237112,393.434052 25.778316,396.292694 
	C33.329712,401.046234 43.981602,396.499207 44.859516,385.519440 
z"/>
<path fill="#F3FDFE" opacity="1.000000" stroke="none" 
	d="
M3.861053,262.008148 
	C3.080688,260.480682 2.300322,258.953186 1.259978,257.212860 
	C1.000000,253.307098 1.000000,249.614182 1.000001,245.460632 
	C1.758735,243.449356 2.517469,241.898697 3.567632,240.572479 
	C1.359403,247.867569 2.028304,254.937912 3.861053,262.008148 
z"/>
<path fill="#07A0DA" opacity="1.000000" stroke="none" 
	d="
M555.291626,199.750214 
	C552.601135,196.370834 549.449707,193.538177 547.950317,190.004532 
	C546.302979,186.122070 544.053406,185.497757 540.366516,185.516785 
	C515.381836,185.645813 490.396179,185.590042 465.410828,185.581924 
	C456.394653,185.578995 453.403473,182.694016 453.383240,173.625946 
	C453.326721,148.307587 453.297974,122.988686 453.435944,97.670967 
	C453.453979,94.363029 452.503845,92.701027 449.406586,91.308647 
	C436.370300,85.448174 429.731049,71.596199 432.808136,57.427383 
	C435.792053,43.687801 447.789459,34.010857 461.890015,33.970367 
	C476.431183,33.928612 488.395264,43.282085 491.671234,57.253269 
	C494.908081,71.057358 488.127716,85.119560 475.167877,91.277527 
	C472.829437,92.388672 471.035980,93.225746 471.062622,96.556282 
	C471.245056,119.374763 471.157074,142.195404 471.170380,165.015335 
	C471.170776,165.664856 471.329010,166.314285 471.474884,167.433823 
	C472.903381,167.558838 474.330994,167.791107 475.758881,167.792664 
	C497.745941,167.816650 519.733032,167.799149 541.720154,167.828033 
	C544.118347,167.831192 545.860840,167.748093 547.206665,164.919785 
	C555.362671,147.780548 574.014893,141.574203 589.809753,150.456253 
	C604.976440,158.985031 609.733643,178.659378 600.168701,193.297516 
	C590.374939,208.285843 571.206177,211.323181 555.945740,200.303772 
	C555.811035,200.206482 555.687561,200.093552 555.291626,199.750214 
M465.429199,76.026344 
	C472.149139,73.192398 475.569519,68.086655 474.551544,62.409138 
	C473.271027,55.267406 467.268951,50.916439 460.081757,51.919830 
	C453.726257,52.807110 449.107361,59.061535 449.925812,65.671967 
	C450.805664,72.778229 456.866974,77.090500 465.429199,76.026344 
M577.862671,188.879395 
	C579.344360,188.144760 580.963745,187.599854 582.283813,186.642410 
	C587.771057,182.662598 588.843994,174.728592 584.740601,169.324066 
	C580.595520,163.864594 572.845703,162.811768 567.412048,166.969940 
	C563.113037,170.259827 561.415833,176.226242 563.318909,181.359161 
	C565.272705,186.628952 569.953735,189.232620 577.862671,188.879395 
z"/>
<path fill="#08A0D9" opacity="1.000000" stroke="none" 
	d="
M179.481659,184.846832 
	C176.960724,185.190994 174.816269,185.554749 172.671234,185.558243 
	C147.841705,185.598816 123.011520,185.668533 98.183037,185.502350 
	C94.088455,185.474945 91.794998,186.293945 89.861259,190.450089 
	C84.056274,202.926697 69.535011,209.447296 56.415588,206.233459 
	C41.975903,202.696182 32.840549,190.940628 32.971214,176.064697 
	C33.091175,162.407654 42.916924,150.291702 56.330067,147.261368 
	C70.352180,144.093445 84.261398,151.126465 90.699570,164.361816 
	C91.449005,165.902466 93.556183,167.796417 95.049355,167.809845 
	C118.377129,168.019699 141.707458,167.948883 165.037186,167.924408 
	C165.499680,167.923920 165.961945,167.703064 166.753006,167.501083 
	C166.823639,166.390808 166.956406,165.270370 166.957123,164.149841 
	C166.971207,141.819885 166.924301,119.489716 167.028687,97.160240 
	C167.042053,94.304260 166.256226,92.811180 163.503128,91.559692 
	C150.008575,85.425407 143.128540,71.589363 146.246902,57.512081 
	C149.316269,43.655964 161.515167,33.961819 175.880524,33.963058 
	C190.233551,33.964291 202.066681,43.549847 205.257675,57.760330 
	C208.363342,71.590782 201.503204,85.545540 188.269272,91.493652 
	C185.244492,92.853172 184.570602,94.524727 184.581985,97.527321 
	C184.679428,123.189758 184.599930,148.852829 184.672134,174.515427 
	C184.684143,178.784256 183.940048,182.472610 179.481659,184.846832 
M169.764938,74.943329 
	C177.163086,79.178055 185.164642,74.315796 187.230682,68.868340 
	C189.697250,62.364910 186.907318,55.480362 180.520905,52.738647 
	C175.011917,50.373623 168.377930,52.454517 165.249191,57.528957 
	C161.607834,63.434845 162.899597,69.146446 169.764938,74.943329 
M72.660980,168.923782 
	C66.776909,163.523315 60.958241,162.800751 55.715061,166.819443 
	C50.970085,170.456268 49.374039,176.722183 51.859753,181.955032 
	C54.925972,188.409927 62.358356,190.981567 68.645531,187.762939 
	C75.466019,184.271332 77.216087,177.105499 72.660980,168.923782 
z"/>
<path fill="#08A0D9" opacity="1.000000" stroke="none" 
	d="
M196.116470,595.138672 
	C185.737320,603.569275 174.629120,605.567627 162.770782,599.930420 
	C151.297134,594.476013 145.395767,584.788269 145.619492,572.309265 
	C145.854980,559.173279 152.534348,549.680481 164.923584,544.573853 
	C165.534271,544.322083 166.091965,543.941772 166.724396,543.593750 
	C166.724396,519.146973 166.724396,494.711395 166.724396,469.935974 
	C165.054962,469.809662 163.614975,469.607300 162.174759,469.605682 
	C140.187943,469.581177 118.200836,469.633636 96.214577,469.519135 
	C93.198715,469.503448 91.524590,470.295166 90.071701,473.169708 
	C83.154442,486.855316 69.408417,492.967102 55.010468,489.119476 
	C41.008739,485.377716 32.267284,472.798615 32.986431,457.426422 
	C33.601368,444.281738 44.544777,432.433472 58.143353,430.189392 
	C72.311760,427.851288 85.541313,435.489746 91.297447,449.323761 
	C91.616318,450.090057 91.996162,450.830963 92.523613,451.960663 
	C99.698029,451.960663 107.003448,451.960541 114.308868,451.960663 
	C134.130341,451.960999 153.951813,451.948944 173.773270,451.967987 
	C181.711014,451.975616 184.602264,454.837769 184.613525,462.818542 
	C184.649490,488.303162 184.649399,513.787842 184.619751,539.272522 
	C184.616730,541.869629 184.778320,543.718079 187.779556,545.137451 
	C208.183258,554.787109 212.166412,578.360718 196.116470,595.138672 
M50.960255,457.964539 
	C50.764851,466.175110 54.069710,470.837402 61.061211,472.214203 
	C66.843697,473.352966 72.889084,469.779572 74.861893,464.056763 
	C76.995743,457.866821 73.675560,450.834717 67.531479,448.531097 
	C60.677563,445.961273 54.234596,449.330017 50.960255,457.964539 
M174.704346,560.967407 
	C168.018402,561.424561 162.719330,567.176086 163.206528,573.446899 
	C163.725800,580.130615 169.748840,585.443176 176.440338,585.119690 
	C183.175461,584.794006 188.434280,578.933960 188.131210,572.092041 
	C187.827103,565.226013 182.930435,560.907837 174.704346,560.967407 
z"/>
<path fill="#08A0D9" opacity="1.000000" stroke="none" 
	d="
M558.044434,434.961914 
	C569.954712,427.844147 581.595764,427.849304 592.587524,435.646179 
	C602.744507,442.850983 606.801575,453.309937 604.514648,465.449097 
	C602.067261,478.440552 593.861389,486.639587 580.862793,489.600464 
	C567.800354,492.575897 554.275574,485.793579 547.797729,473.565277 
	C546.904541,471.879242 544.694336,469.775330 543.073792,469.758179 
	C520.081055,469.514374 497.084808,469.593475 474.089447,469.619354 
	C473.298340,469.620239 472.507507,469.880096 471.162781,470.116699 
	C471.162781,472.007172 471.162842,473.794983 471.162750,475.582794 
	C471.161499,496.578583 471.228210,517.574829 471.092102,538.569763 
	C471.069366,542.074158 471.756531,544.028992 475.368774,545.678528 
	C488.190308,551.533447 494.860229,565.925781 491.604797,579.377441 
	C488.241516,593.274963 476.417816,602.863281 462.467926,603.005798 
	C448.255188,603.151001 436.050568,593.470032 432.810913,579.481201 
	C429.628387,565.739136 436.058167,551.633362 448.842163,545.749634 
	C452.622162,544.010010 453.436523,541.917114 453.418457,538.208069 
	C453.298370,513.546936 453.350861,488.884857 453.370911,464.223083 
	C453.378662,454.661407 456.056610,451.964417 465.479919,451.961548 
	C490.808197,451.953888 516.136597,451.921875 541.464600,452.009979 
	C544.482666,452.020447 545.731079,451.030457 547.325256,448.230713 
	C550.052124,443.441650 554.181091,439.450867 558.044434,434.961914 
M586.971252,462.948486 
	C587.026550,461.791229 587.169006,460.630493 587.122498,459.477325 
	C586.872070,453.268250 582.623169,448.623535 576.407959,447.701599 
	C571.104736,446.914948 565.219971,450.405884 563.311401,455.470642 
	C561.245117,460.954254 563.562988,467.681366 568.556641,470.693268 
	C575.246094,474.727936 582.791260,471.858643 586.971252,462.948486 
M464.068451,585.005005 
	C465.608307,584.419250 467.272064,584.041199 468.665558,583.210083 
	C473.442657,580.360779 475.630524,574.643982 474.104645,569.471985 
	C472.418671,563.757385 468.431702,561.023926 461.739471,560.994446 
	C455.915161,560.968811 451.847168,563.928284 450.279785,569.331482 
	C447.903717,577.522522 453.858246,584.750305 464.068451,585.005005 
z"/>
<path fill="#06A0DA" opacity="1.000000" stroke="none" 
	d="
M304.864380,200.000000 
	C304.866211,263.284332 304.870850,326.068634 304.866241,388.852966 
	C304.865723,395.990814 302.459045,399.727112 296.447845,402.059906 
	C290.411163,404.402588 282.558777,403.061859 279.015656,398.379456 
	C277.338196,396.162598 276.100525,392.975159 276.094574,390.224365 
	C275.940308,318.947021 275.957214,247.669235 276.001251,176.391571 
	C276.006104,168.545242 282.131775,163.091278 290.446838,163.164703 
	C298.739349,163.237946 304.772400,168.770294 304.848785,176.517883 
	C304.924316,184.177902 304.864716,191.839233 304.864380,200.000000 
z"/>
<path fill="#07A0D9" opacity="1.000000" stroke="none" 
	d="
M633.804138,396.593201 
	C628.552368,408.783264 619.525269,415.420441 606.720825,415.925110 
	C593.644836,416.440460 584.044373,410.284058 578.353943,398.507843 
	C576.983826,395.672333 575.441162,394.720398 572.343628,394.805573 
	C564.024231,395.034332 555.691406,395.000305 547.369873,394.810242 
	C544.604004,394.747070 543.401489,395.692047 542.266724,398.207581 
	C536.287109,411.462738 522.562988,418.301605 508.612427,415.271790 
	C494.414490,412.188232 484.900238,400.467560 484.846741,385.994537 
	C484.793060,371.459991 494.197815,359.477051 508.165009,356.283875 
	C521.949646,353.132446 536.208496,359.873932 542.091675,372.936005 
	C543.655762,376.408569 545.523804,377.093445 548.818115,377.028259 
	C556.974243,376.866852 565.140015,377.111511 573.291138,376.853180 
	C574.807190,376.805115 577.009094,375.528778 577.649841,374.213135 
	C585.292297,358.520996 601.256714,351.642761 616.608093,357.668335 
	C632.072998,363.738464 639.152405,379.479156 633.804138,396.593201 
M617.983643,385.570618 
	C616.923767,376.971893 610.335022,371.678833 603.091309,373.606934 
	C596.677368,375.314117 592.360046,381.296082 593.213989,387.292725 
	C594.088196,393.431854 599.445007,398.122620 605.599976,398.138794 
	C612.338135,398.156494 616.872681,393.851318 617.983643,385.570618 
M517.655701,373.671570 
	C511.899567,372.419830 507.480865,374.653839 504.427521,379.343964 
	C501.658295,383.597748 501.820312,388.212463 504.553101,392.491760 
	C507.433289,397.001923 511.771118,398.711823 516.997986,397.974548 
	C522.273560,397.230469 526.428528,392.914429 527.084778,387.748322 
	C527.925781,381.128021 525.299744,376.934540 517.655701,373.671570 
z"/>
<path fill="#08A0D9" opacity="1.000000" stroke="none" 
	d="
M602.359497,221.033936 
	C624.542664,218.861496 642.144043,239.968918 633.829773,261.812317 
	C629.444885,273.332397 620.686035,280.121307 608.188110,281.029755 
	C594.917847,281.994385 584.821350,276.438782 578.843384,264.522949 
	C577.060730,260.969696 575.232361,259.777008 571.389038,259.936493 
	C563.742004,260.253754 556.066956,260.200531 548.414795,259.952057 
	C545.131714,259.845459 543.511047,260.844116 542.062622,263.905304 
	C536.314880,276.053253 525.101196,282.165161 511.558929,281.031067 
	C500.078491,280.069611 489.844299,271.615601 486.106049,260.005524 
	C481.421875,245.457748 488.999603,229.034271 503.098816,223.176544 
	C517.927612,217.015686 534.776184,222.967041 541.691711,237.418457 
	C543.572937,241.349625 545.690918,242.328735 549.594177,242.208298 
	C557.247131,241.972153 564.915283,242.020767 572.571350,242.198685 
	C575.422058,242.264954 576.990967,241.466644 578.216858,238.723160 
	C582.787537,228.494186 590.908508,222.782455 602.359497,221.033936 
M505.962646,242.489609 
	C500.813904,249.486404 501.794830,257.362518 508.329651,261.494904 
	C514.638367,265.484344 522.674194,263.154297 526.078247,256.348572 
	C528.549011,251.408737 527.181396,245.084335 522.853271,241.434998 
	C518.166260,237.483063 512.503662,237.667786 505.962646,242.489609 
M594.602173,256.619995 
	C599.349121,263.345673 605.622559,265.291168 611.611694,261.894836 
	C617.481079,258.566406 619.720154,251.503403 616.791260,245.556183 
	C613.986816,239.861694 607.043213,237.161957 601.145020,239.472824 
	C594.811829,241.954117 592.000793,248.660446 594.602173,256.619995 
z"/>
<path fill="#08A0D9" opacity="1.000000" stroke="none" 
	d="
M3.988602,262.152954 
	C2.028304,254.937912 1.359403,247.867569 3.857350,240.394318 
	C3.855639,239.991714 4.109298,239.685867 4.329942,239.351776 
	C4.621462,238.689301 4.692338,238.360886 4.763215,238.032486 
	C14.320293,220.033844 34.263454,216.636368 47.189945,225.042282 
	C52.231819,228.320969 56.042919,233.787888 59.686886,238.788406 
	C61.356762,241.079941 62.563297,242.260437 65.414268,242.201492 
	C73.407631,242.036224 81.410667,242.005249 89.401764,242.221497 
	C92.821426,242.314026 94.577408,241.335068 96.133789,238.012497 
	C102.021851,225.442703 115.588409,218.679779 128.737289,221.204132 
	C142.015579,223.753326 151.683075,234.355789 153.175400,248.005798 
	C154.758331,262.484314 145.817184,275.797333 131.676010,280.017639 
	C117.837662,284.147552 102.563683,277.702545 96.434357,264.475067 
	C94.672615,260.673096 92.674866,259.857697 88.965866,259.963562 
	C80.809128,260.196381 72.636337,259.887024 64.481674,260.153412 
	C62.965187,260.202911 60.812649,261.557068 60.118721,262.907684 
	C49.006702,284.535400 23.962645,287.743011 8.011382,269.000641 
	C7.547332,268.289948 7.307681,268.113342 6.982450,268.052856 
	C6.982450,268.052856 7.008828,268.009796 6.954300,267.729980 
	C6.632607,267.204132 6.365442,266.958099 6.098277,266.712067 
	C6.098277,266.712067 6.044466,266.281250 5.900673,265.879425 
	C5.627865,265.148529 5.391362,264.943298 5.047370,264.861938 
	C5.047370,264.861938 5.033187,264.382477 4.922831,263.910095 
	C4.578953,263.186371 4.345433,262.935028 4.111909,262.683716 
	C4.111906,262.683716 4.116149,262.297791 3.988602,262.152954 
M20.066536,253.043091 
	C22.882500,261.718262 29.830570,265.535675 37.122578,262.414001 
	C42.774120,259.994598 45.969677,253.763611 44.409302,248.205688 
	C42.644093,241.918243 37.158745,238.009827 31.059399,238.693634 
	C24.280403,239.453674 20.149834,244.509491 20.066536,253.043091 
M126.484207,263.003357 
	C133.324783,260.233215 136.783508,254.839386 135.539871,248.881165 
	C134.114639,242.052979 127.980019,237.785004 121.182220,238.892288 
	C114.639549,239.958008 110.212875,245.922882 111.011940,252.596573 
	C111.863014,259.704681 117.755836,263.921112 126.484207,263.003357 
z"/>
<path fill="#07A0D9" opacity="1.000000" stroke="none" 
	d="
M357.985229,516.795044 
	C357.999817,499.981995 368.813416,486.866089 383.774414,485.059387 
	C399.862274,483.116577 413.882629,492.681976 417.585480,508.126892 
	C420.922058,522.044006 414.037689,536.214661 400.589386,542.358826 
	C397.846619,543.611877 396.894989,544.957458 396.966614,547.876282 
	C397.154694,555.536743 397.154938,563.207581 396.972382,570.868164 
	C396.907684,573.581177 397.723694,574.853638 400.282440,576.022888 
	C412.934113,581.804077 419.773926,594.371399 417.893799,607.721985 
	C416.012085,621.084106 406.007599,631.061157 392.215790,633.329590 
	C378.087921,635.653320 363.948822,627.013855 359.287537,613.209167 
	C354.647095,599.466187 360.603363,583.967224 373.193237,577.121155 
	C374.944916,576.168579 376.793304,575.393860 379.113007,574.291565 
	C379.113007,565.110474 379.211151,555.639160 378.987091,546.175537 
	C378.959503,545.011414 377.442200,543.404480 376.223541,542.821228 
	C365.388000,537.635437 359.352539,529.131836 357.985229,516.795044 
M387.631653,502.502289 
	C386.189941,502.866028 384.662933,503.036469 383.321716,503.628082 
	C378.428436,505.786407 375.904938,509.682465 375.877594,514.984009 
	C375.851257,520.086304 378.258942,523.937683 382.870300,526.135742 
	C387.462433,528.324707 392.003876,527.871826 395.901184,524.576538 
	C399.683167,521.378906 401.628967,517.317261 400.225037,512.189026 
	C398.571899,506.150574 394.486938,503.106476 387.631653,502.502289 
M398.642273,609.759338 
	C399.109406,608.523254 399.743378,607.322632 400.014709,606.044983 
	C401.168579,600.611877 398.640350,595.298645 393.747253,592.631226 
	C388.917847,589.998535 383.478668,590.681091 379.473816,594.422485 
	C375.502869,598.132202 374.652405,603.927856 376.862671,609.007629 
	C379.762604,615.672424 391.469482,619.817322 398.642273,609.759338 
z"/>
<path fill="#08A0D9" opacity="1.000000" stroke="none" 
	d="
M378.045349,4.828559 
	C394.896973,-0.020211 410.306732,7.349602 416.236755,22.802607 
	C422.254272,38.483517 415.078796,53.498112 397.037811,62.540199 
	C397.037811,71.713829 396.896210,81.031891 397.194122,90.335876 
	C397.237610,91.693924 399.121277,93.516174 400.587585,94.223328 
	C413.055481,100.236046 419.607025,111.973717 418.078430,126.028572 
	C416.766113,138.094910 407.458008,148.299286 395.030640,151.295670 
	C380.228149,154.864700 365.133911,146.643921 359.818665,132.118195 
	C354.542847,117.700188 360.855957,101.563835 374.737518,95.006180 
	C378.131897,93.402657 379.381775,91.665604 379.221985,87.942200 
	C378.908112,80.630051 379.302795,73.287476 378.988190,65.975388 
	C378.916779,64.315216 377.536041,61.930515 376.100220,61.232662 
	C363.934021,55.319542 357.438568,45.826138 357.903503,32.275864 
	C358.360687,18.951946 365.369263,9.927022 378.045349,4.828559 
M388.475708,134.156509 
	C396.853912,133.067459 402.049347,126.803886 400.474731,119.690567 
	C399.066101,113.327110 393.208984,108.824158 387.094513,109.403915 
	C380.961365,109.985443 376.042267,115.214233 375.854675,121.351440 
	C375.641388,128.330246 379.901489,132.959122 388.475708,134.156509 
M393.790619,22.416229 
	C389.015198,19.965935 384.434937,20.436966 380.271484,23.682272 
	C376.610840,26.535641 374.904297,30.423176 375.650452,35.083210 
	C376.596039,40.988716 381.324768,45.273296 387.162262,45.771198 
	C392.114044,46.193562 397.504089,42.784660 399.398102,38.032726 
	C401.674713,32.320866 400.007568,27.194613 393.790619,22.416229 
z"/>
<path fill="#08A0D9" opacity="1.000000" stroke="none" 
	d="
M280.037476,124.712608 
	C277.157043,142.627304 263.214905,153.823807 246.709854,151.903381 
	C230.169739,149.978882 218.519409,135.897018 220.022385,119.075974 
	C221.013870,107.979385 226.684097,99.619308 236.855453,94.860367 
	C240.273041,93.261345 241.386658,91.365601 241.216949,87.683220 
	C240.895050,80.699158 241.010513,73.687416 241.169464,66.692284 
	C241.236877,63.726608 240.587936,62.067219 237.496674,60.703972 
	C222.878082,54.257214 216.045456,37.361309 221.740128,22.663176 
	C227.642792,7.428197 243.787308,-0.386790 259.173920,4.542766 
	C274.610718,9.488394 283.250824,25.175358 279.146973,41.010014 
	C276.791870,50.096985 271.300049,56.768894 262.720917,60.561211 
	C259.862732,61.824631 258.695129,63.229446 258.801605,66.426689 
	C259.051025,73.917152 258.968262,81.422714 258.845642,88.919319 
	C258.803192,91.515297 259.414307,92.968956 262.052032,94.215584 
	C274.647583,100.168449 280.675323,110.281982 280.037476,124.712608 
M238.358871,37.563198 
	C242.281387,45.063301 249.002167,47.774208 255.541000,44.493786 
	C261.632294,41.437889 264.096649,34.185371 261.163422,27.947027 
	C258.662292,22.627647 252.071487,19.651678 246.536835,21.342627 
	C240.152039,23.293306 237.083115,28.914427 238.358871,37.563198 
M245.188095,110.453743 
	C236.320648,115.739120 235.011215,126.139343 242.510406,131.721298 
	C247.029251,135.084854 253.503891,135.028198 257.794220,131.587555 
	C262.331970,127.948502 263.737579,121.459885 261.102295,116.316597 
	C258.298431,110.844269 252.767715,108.606369 245.188095,110.453743 
z"/>
<path fill="#07A0D9" opacity="1.000000" stroke="none" 
	d="
M244.910339,633.192749 
	C231.115921,630.315063 221.610214,620.328613 220.045914,607.435913 
	C218.421524,594.048035 225.097000,581.749878 237.536972,576.144775 
	C240.571060,574.777710 241.261322,573.143677 241.184250,570.156189 
	C240.999542,562.996033 240.951584,555.822144 241.195312,548.665527 
	C241.313416,545.197998 240.218018,543.463013 236.945435,541.942688 
	C224.756363,536.280029 218.332504,524.019531 220.111465,510.822418 
	C221.812988,498.199768 231.733536,487.673523 244.213257,485.249054 
	C256.979004,482.769012 269.997559,488.837799 276.455383,500.279144 
	C284.949280,515.327820 278.738586,534.925354 262.889374,542.173096 
	C259.749878,543.608765 258.865570,545.251648 258.948303,548.492126 
	C259.165070,556.978821 259.021454,565.474731 259.021454,574.442078 
	C268.495941,577.926086 275.474915,584.249023 278.747406,593.982910 
	C280.987427,600.645691 280.806488,607.455383 278.348755,614.077759 
	C273.311340,627.651062 259.612366,635.565430 244.910339,633.192749 
M251.863205,502.823151 
	C244.576096,501.099365 236.554260,508.007599 237.773071,516.518494 
	C238.682251,522.867371 243.829834,527.446228 250.020569,527.481995 
	C255.985947,527.516357 261.059082,523.173340 262.222656,517.035950 
	C263.431732,510.658569 259.841064,505.387390 251.863205,502.823151 
M239.864258,610.464844 
	C244.932404,615.914978 249.881393,617.268433 255.340378,614.697205 
	C260.078979,612.465271 263.154999,606.950989 262.350494,602.047791 
	C261.459015,596.614685 258.470062,592.889893 253.110764,591.413208 
	C248.335541,590.097534 244.091248,591.541687 240.884308,595.120300 
	C236.918945,599.545288 236.449783,604.606201 239.864258,610.464844 
z"/>
<path fill="#059FD9" opacity="1.000000" stroke="none" 
	d="
M236.906403,398.905457 
	C225.466965,410.352142 214.315674,421.587189 203.066193,432.722992 
	C198.306732,437.434387 192.816162,438.460052 187.549911,435.967560 
	C182.349167,433.506073 179.013458,428.255768 180.184982,422.545746 
	C180.842361,419.341736 182.702148,415.961212 184.983963,413.586182 
	C195.371048,402.774902 206.044785,392.235779 216.750336,381.736328 
	C219.060883,379.470276 220.050842,377.190247 220.033722,373.900513 
	C219.898514,347.907654 219.926880,321.913696 219.978500,295.920227 
	C219.995529,287.339447 225.032669,281.920929 232.797226,281.834808 
	C240.686386,281.747314 246.134796,286.795441 246.158417,294.765564 
	C246.249283,325.424377 246.226761,356.083771 246.086914,386.742218 
	C246.078995,388.480042 244.962799,390.468292 243.807434,391.888519 
	C241.820389,394.331055 239.395798,396.417633 236.906403,398.905457 
z"/>
<path fill="#039FDA" opacity="1.000000" stroke="none" 
	d="
M342.607788,356.998505 
	C342.607117,323.203461 342.586761,289.907990 342.618561,256.612579 
	C342.627686,247.063263 347.887543,241.041824 356.181305,240.864761 
	C365.031708,240.675812 371.072083,246.340591 371.110199,255.218140 
	C371.199615,276.027374 371.147522,296.837250 371.147369,317.646851 
	C371.147247,335.126923 371.223389,352.607605 371.097229,370.086792 
	C371.040527,377.946320 364.803741,383.943359 357.078949,384.022675 
	C349.247528,384.103058 343.127686,378.375580 342.647736,370.482300 
	C342.567017,369.154938 342.613007,367.819550 342.610992,366.487854 
	C342.606445,363.491272 342.608551,360.494690 342.607788,356.998505 
z"/>
<path fill="#07A1DA" opacity="1.000000" stroke="none" 
	d="
M405.811157,291.000000 
	C405.811829,283.669861 405.756836,276.839142 405.828003,270.009735 
	C405.909515,262.189117 410.999939,256.508392 418.399689,255.826721 
	C426.390869,255.090530 432.496674,259.474457 434.137085,267.204407 
	C434.445801,268.658997 434.613586,270.172485 434.614868,271.659027 
	C434.644196,305.809692 434.691101,339.960510 434.615723,374.111023 
	C434.591644,385.025116 426.799316,391.886902 417.004486,389.961670 
	C410.323639,388.648529 405.822540,382.935638 405.813477,375.460785 
	C405.779510,347.473907 405.806854,319.486938 405.811157,291.000000 
z"/>
<path fill="#08A0D9" opacity="1.000000" stroke="none" 
	d="
M141.139709,120.861862 
	C136.227295,135.413040 125.346748,143.367111 111.193779,143.100388 
	C98.118118,142.853989 86.702003,134.138016 83.047684,121.611427 
	C79.461006,109.316711 83.774261,96.376823 94.010765,88.721931 
	C104.175346,81.120811 118.518143,80.834877 129.093613,88.022514 
	C139.525314,95.112450 144.277618,107.819176 141.139709,120.861862 
M106.570160,124.130104 
	C113.383202,126.437836 118.397972,125.162308 122.029716,120.197906 
	C125.172562,115.901802 125.040024,109.559395 121.688660,105.375847 
	C118.313866,101.163033 113.809120,99.865761 108.778481,101.139534 
	C103.900452,102.374672 100.755997,105.711044 99.849030,110.762589 
	C98.826416,116.458313 101.110466,120.738434 106.570160,124.130104 
z"/>
<path fill="#08A0D9" opacity="1.000000" stroke="none" 
	d="
M136.717682,506.369324 
	C146.840118,522.732300 142.128403,542.099976 126.258240,550.517639 
	C110.605316,558.820068 91.394753,552.127197 84.291420,535.896545 
	C78.476143,522.609009 83.019150,507.008423 95.103714,498.767334 
	C107.024010,490.638275 123.358902,492.303833 133.533798,502.706879 
	C134.579636,503.776093 135.519699,504.948761 136.717682,506.369324 
M99.820694,525.848999 
	C102.078247,533.796692 108.297134,537.688782 115.454056,535.633179 
	C122.249260,533.681458 125.979683,526.677795 123.802872,519.958679 
	C122.070297,514.610779 116.042564,510.735107 110.618721,511.481567 
	C103.943970,512.400208 99.991730,517.308777 99.820694,525.848999 
z"/>
<path fill="#08A0D9" opacity="1.000000" stroke="none" 
	d="
M495.928864,526.726807 
	C495.495270,510.438141 503.848511,498.535187 518.029541,494.740906 
	C531.724609,491.076630 545.896179,496.945740 552.428284,509.402618 
	C558.281067,520.563843 557.602112,531.714233 550.162415,541.847351 
	C542.949829,551.671143 532.747131,555.668091 520.758545,553.492004 
	C508.176117,551.208069 500.025421,543.592163 496.717133,531.083130 
	C496.378998,529.804688 496.206299,528.482361 495.928864,526.726807 
M518.210876,533.457947 
	C523.061279,536.897339 528.112305,537.101807 533.059570,533.907532 
	C536.985535,531.372681 538.665222,527.464172 538.273132,522.820496 
	C537.803589,517.259827 533.921021,512.981934 528.453674,511.741150 
	C523.461121,510.608093 518.030273,513.012024 515.279114,517.572693 
	C512.291199,522.526062 513.068665,527.627869 518.210876,533.457947 
z"/>
<path fill="#08A0D9" opacity="1.000000" stroke="none" 
	d="
M311.126099,93.999985 
	C311.123444,70.702698 311.097046,47.905342 311.154388,25.108206 
	C311.160156,22.810810 311.314728,20.396872 312.024536,18.242712 
	C313.463531,13.875587 317.321503,11.891865 321.935638,12.799833 
	C326.467133,13.691538 328.860077,16.535112 328.991760,21.134914 
	C329.096497,24.792881 329.021881,28.456062 329.022095,32.116928 
	C329.024170,67.560875 329.000153,103.004860 329.059692,138.448700 
	C329.066803,142.682159 327.867828,146.539261 323.742767,147.587128 
	C320.911407,148.306351 316.598572,147.973572 314.673889,146.218399 
	C312.485352,144.222595 311.345215,140.141113 311.266663,136.929138 
	C310.920959,122.793396 311.122742,108.644264 311.126099,93.999985 
z"/>
<path fill="#0A9FD8" opacity="1.000000" stroke="none" 
	d="
M563.000000,313.965698 
	C582.472778,313.964478 601.445801,313.916260 620.418335,313.986603 
	C627.396301,314.012482 631.621521,318.601196 630.474792,324.578217 
	C629.575989,329.263184 626.020081,331.819733 620.070923,331.830902 
	C598.268921,331.871765 576.466797,331.865723 554.664734,331.865479 
	C538.021973,331.865265 521.379028,331.882477 504.736420,331.818817 
	C498.505310,331.794983 494.714111,328.510681 494.522339,323.243469 
	C494.317963,317.629822 498.339508,314.007904 505.082367,313.989746 
	C524.221497,313.938141 543.360779,313.967957 563.000000,313.965698 
z"/>
<path fill="#08A0D9" opacity="1.000000" stroke="none" 
	d="
M495.810608,113.917389 
	C496.335602,97.950226 505.617218,86.376785 519.935791,83.357292 
	C533.234192,80.552940 547.471130,87.404968 553.109558,99.842789 
	C558.365845,111.437637 557.191711,122.624710 548.953674,132.517731 
	C540.779602,142.333862 527.922180,145.801605 515.972839,141.418015 
	C503.504089,136.843887 496.810120,127.660477 495.810608,113.917389 
M534.962341,104.581924 
	C529.876465,100.282318 524.255005,99.517410 519.483948,102.475845 
	C515.093750,105.198128 512.741150,110.447319 513.747253,115.275475 
	C514.838928,120.514427 518.498413,124.246948 523.656128,125.185379 
	C528.924194,126.143875 533.254456,124.328888 536.158142,119.939018 
	C539.435120,114.984703 539.051514,109.921143 534.962341,104.581924 
z"/>
<path fill="#0A9FD8" opacity="1.000000" stroke="none" 
	d="
M87.000000,313.966309 
	C103.307777,313.961670 119.115753,313.997864 134.923218,313.924561 
	C139.015869,313.905579 142.576050,314.823578 144.743439,318.561829 
	C147.603561,323.494965 145.031143,329.734497 139.496521,331.387695 
	C138.250778,331.759766 136.881943,331.849518 135.569626,331.850281 
	C97.131744,331.872314 58.693825,331.883453 20.255957,331.848785 
	C13.739019,331.842926 9.869098,328.451691 9.840250,323.006714 
	C9.810066,317.309814 13.663063,313.993958 20.606565,313.979858 
	C41.073414,313.938232 61.540398,313.965851 82.007332,313.966339 
	C83.504890,313.966370 85.002441,313.966339 87.000000,313.966309 
z"/>
<path fill="#08A0D9" opacity="1.000000" stroke="none" 
	d="
M311.126099,521.002747 
	C311.137482,515.844849 310.963654,511.176605 311.207397,506.530243 
	C311.505219,500.853333 315.275269,497.137177 320.257782,497.164734 
	C325.391998,497.193115 329.011536,501.238464 329.015045,507.176666 
	C329.037811,545.777832 329.034027,584.378967 329.014709,622.980103 
	C329.011414,629.572754 325.784943,633.196106 320.114288,633.154907 
	C314.597382,633.114807 311.198242,629.401611 311.162933,622.829956 
	C311.067322,605.027344 311.127075,587.223877 311.126251,569.420776 
	C311.125488,553.447876 311.126068,537.474976 311.126099,521.002747 
z"/>
<path fill="#08A0D9" opacity="1.000000" stroke="none" 
	d="
M406.718536,194.273163 
	C401.013336,187.412262 400.142731,180.175247 404.106354,172.687576 
	C407.619080,166.051697 413.694183,162.938126 421.011383,163.358673 
	C428.990784,163.817276 434.728882,168.048859 437.396362,175.803818 
	C440.101318,183.667679 437.105469,192.364990 430.296997,196.886002 
	C422.946808,201.766739 414.554413,200.926834 406.718536,194.273163 
z"/>
<path fill="#07A0D9" opacity="1.000000" stroke="none" 
	d="
M367.584656,440.277405 
	C375.401245,447.324707 377.256134,455.610168 373.073975,463.726929 
	C369.266083,471.117310 360.912323,474.859772 352.433319,472.973846 
	C342.609100,470.788696 336.486084,460.268738 339.189667,450.220032 
	C341.778442,440.598083 352.292572,434.709412 361.875305,437.620148 
	C363.754333,438.190887 365.491608,439.228302 367.584656,440.277405 
z"/>
<path fill="#07A0D9" opacity="1.000000" stroke="none" 
	d="
M374.279358,405.156372 
	C376.660339,416.286682 372.429932,424.662659 363.012329,428.109467 
	C354.624390,431.179413 345.044800,427.490967 340.787140,419.552032 
	C335.913483,410.464508 339.618408,398.791595 348.778168,394.375092 
	C358.753510,389.565308 369.376099,393.916046 374.279358,405.156372 
z"/>
<path fill="#08A0D9" opacity="1.000000" stroke="none" 
	d="
M401.852509,227.734222 
	C401.510345,218.969482 404.884369,212.621002 412.570038,209.287476 
	C419.296417,206.370056 425.950562,207.111786 431.752350,211.942551 
	C438.089874,217.219330 440.092865,225.769821 436.902466,233.213394 
	C433.734467,240.604660 426.227142,244.909134 417.914886,244.100327 
	C409.692871,243.300323 403.677673,237.324326 401.852509,227.734222 
z"/>
<path fill="#F3FDFE" opacity="1.000000" stroke="none" 
	d="
M7.061466,268.252563 
	C7.307681,268.113342 7.547332,268.289948 7.728872,268.810699 
	C7.495496,268.901581 7.290210,268.706085 7.061466,268.252563 
z"/>
<path fill="#F3FDFE" opacity="1.000000" stroke="none" 
	d="
M6.148372,266.981934 
	C6.365442,266.958099 6.632607,267.204132 6.929083,267.730896 
	C6.705084,267.758331 6.451776,267.505066 6.148372,266.981934 
z"/>
<path fill="#F3FDFE" opacity="1.000000" stroke="none" 
	d="
M5.092843,265.085541 
	C5.391362,264.943298 5.627865,265.148529 5.753297,265.720032 
	C5.462976,265.822327 5.259177,265.604553 5.092843,265.085541 
z"/>
<path fill="#F3FDFE" opacity="1.000000" stroke="none" 
	d="
M4.135393,262.938416 
	C4.345433,262.935028 4.578953,263.186371 4.799829,263.704224 
	C4.577748,263.711517 4.368311,263.452332 4.135393,262.938416 
z"/>
<path fill="#F3FDFE" opacity="1.000000" stroke="none" 
	d="
M4.571960,238.191422 
	C4.692338,238.360886 4.621462,238.689301 4.326959,239.153137 
	C4.075239,238.940155 4.167697,238.627426 4.571960,238.191422 
z"/>
<path fill="#F4FDFE" opacity="1.000000" stroke="none" 
	d="
M122.303497,373.329346 
	C131.776413,374.376526 137.154617,380.600861 135.475281,388.075836 
	C134.069199,394.334503 129.218781,398.265869 123.051422,398.145691 
	C117.098862,398.029663 112.112045,393.847321 111.079208,388.104828 
	C110.004944,382.132019 113.204453,376.493896 119.036690,374.170166 
	C119.956139,373.803864 120.956017,373.639374 122.303497,373.329346 
z"/>
<path fill="#F3FDFE" opacity="1.000000" stroke="none" 
	d="
M44.854462,385.914948 
	C43.981602,396.499207 33.329712,401.046234 25.778316,396.292694 
	C21.237112,393.434052 19.014744,388.090118 20.210388,382.948059 
	C21.376280,377.933960 25.818502,374.031555 31.131258,373.354248 
	C35.558247,372.789825 40.901318,375.573059 43.092762,379.881561 
	C43.973217,381.612549 44.287529,383.631531 44.854462,385.914948 
z"/>
<path fill="#F3FDFE" opacity="1.000000" stroke="none" 
	d="
M465.055176,76.097931 
	C456.866974,77.090500 450.805664,72.778229 449.925812,65.671967 
	C449.107361,59.061535 453.726257,52.807110 460.081757,51.919830 
	C467.268951,50.916439 473.271027,55.267406 474.551544,62.409138 
	C475.569519,68.086655 472.149139,73.192398 465.055176,76.097931 
z"/>
<path fill="#F5FDFE" opacity="1.000000" stroke="none" 
	d="
M577.453857,188.936646 
	C569.953735,189.232620 565.272705,186.628952 563.318909,181.359161 
	C561.415833,176.226242 563.113037,170.259827 567.412048,166.969940 
	C572.845703,162.811768 580.595520,163.864594 584.740601,169.324066 
	C588.843994,174.728592 587.771057,182.662598 582.283813,186.642410 
	C580.963745,187.599854 579.344360,188.144760 577.453857,188.936646 
z"/>
<path fill="#F3FDFE" opacity="1.000000" stroke="none" 
	d="
M169.435944,74.764679 
	C162.899597,69.146446 161.607834,63.434845 165.249191,57.528957 
	C168.377930,52.454517 175.011917,50.373623 180.520905,52.738647 
	C186.907318,55.480362 189.697250,62.364910 187.230682,68.868340 
	C185.164642,74.315796 177.163086,79.178055 169.435944,74.764679 
z"/>
<path fill="#F5FDFE" opacity="1.000000" stroke="none" 
	d="
M72.880226,169.224854 
	C77.216087,177.105499 75.466019,184.271332 68.645531,187.762939 
	C62.358356,190.981567 54.925972,188.409927 51.859753,181.955032 
	C49.374039,176.722183 50.970085,170.456268 55.715061,166.819443 
	C60.958241,162.800751 66.776909,163.523315 72.880226,169.224854 
z"/>
<path fill="#F4FDFE" opacity="1.000000" stroke="none" 
	d="
M51.011238,457.553345 
	C54.234596,449.330017 60.677563,445.961273 67.531479,448.531097 
	C73.675560,450.834717 76.995743,457.866821 74.861893,464.056763 
	C72.889084,469.779572 66.843697,473.352966 61.061211,472.214203 
	C54.069710,470.837402 50.764851,466.175110 51.011238,457.553345 
z"/>
<path fill="#F5FDFE" opacity="1.000000" stroke="none" 
	d="
M175.134338,560.988647 
	C182.930435,560.907837 187.827103,565.226013 188.131210,572.092041 
	C188.434280,578.933960 183.175461,584.794006 176.440338,585.119690 
	C169.748840,585.443176 163.725800,580.130615 163.206528,573.446899 
	C162.719330,567.176086 168.018402,561.424561 175.134338,560.988647 
z"/>
<path fill="#F4FDFE" opacity="1.000000" stroke="none" 
	d="
M586.893433,463.349121 
	C582.791260,471.858643 575.246094,474.727936 568.556641,470.693268 
	C563.562988,467.681366 561.245117,460.954254 563.311401,455.470642 
	C565.219971,450.405884 571.104736,446.914948 576.407959,447.701599 
	C582.623169,448.623535 586.872070,453.268250 587.122498,459.477325 
	C587.169006,460.630493 587.026550,461.791229 586.893433,463.349121 
z"/>
<path fill="#F5FDFE" opacity="1.000000" stroke="none" 
	d="
M463.657593,585.038086 
	C453.858246,584.750305 447.903717,577.522522 450.279785,569.331482 
	C451.847168,563.928284 455.915161,560.968811 461.739471,560.994446 
	C468.431702,561.023926 472.418671,563.757385 474.104645,569.471985 
	C475.630524,574.643982 473.442657,580.360779 468.665558,583.210083 
	C467.272064,584.041199 465.608307,584.419250 463.657593,585.038086 
z"/>
<path fill="#F3FDFE" opacity="1.000000" stroke="none" 
	d="
M617.978271,385.981079 
	C616.872681,393.851318 612.338135,398.156494 605.599976,398.138794 
	C599.445007,398.122620 594.088196,393.431854 593.213989,387.292725 
	C592.360046,381.296082 596.677368,375.314117 603.091309,373.606934 
	C610.335022,371.678833 616.923767,376.971893 617.978271,385.981079 
z"/>
<path fill="#F5FDFE" opacity="1.000000" stroke="none" 
	d="
M518.027466,373.774872 
	C525.299744,376.934540 527.925781,381.128021 527.084778,387.748322 
	C526.428528,392.914429 522.273560,397.230469 516.997986,397.974548 
	C511.771118,398.711823 507.433289,397.001923 504.553101,392.491760 
	C501.820312,388.212463 501.658295,383.597748 504.427521,379.343964 
	C507.480865,374.653839 511.899567,372.419830 518.027466,373.774872 
z"/>
<path fill="#F5FDFE" opacity="1.000000" stroke="none" 
	d="
M506.226685,242.229187 
	C512.503662,237.667786 518.166260,237.483063 522.853271,241.434998 
	C527.181396,245.084335 528.549011,251.408737 526.078247,256.348572 
	C522.674194,263.154297 514.638367,265.484344 508.329651,261.494904 
	C501.794830,257.362518 500.813904,249.486404 506.226685,242.229187 
z"/>
<path fill="#F3FDFE" opacity="1.000000" stroke="none" 
	d="
M594.421387,256.282471 
	C592.000793,248.660446 594.811829,241.954117 601.145020,239.472824 
	C607.043213,237.161957 613.986816,239.861694 616.791260,245.556183 
	C619.720154,251.503403 617.481079,258.566406 611.611694,261.894836 
	C605.622559,265.291168 599.349121,263.345673 594.421387,256.282471 
z"/>
<path fill="#F5FDFE" opacity="1.000000" stroke="none" 
	d="
M20.035339,252.634216 
	C20.149834,244.509491 24.280403,239.453674 31.059399,238.693634 
	C37.158745,238.009827 42.644093,241.918243 44.409302,248.205688 
	C45.969677,253.763611 42.774120,259.994598 37.122578,262.414001 
	C29.830570,265.535675 22.882500,261.718262 20.035339,252.634216 
z"/>
<path fill="#F5FDFE" opacity="1.000000" stroke="none" 
	d="
M126.113129,263.069824 
	C117.755836,263.921112 111.863014,259.704681 111.011940,252.596573 
	C110.212875,245.922882 114.639549,239.958008 121.182220,238.892288 
	C127.980019,237.785004 134.114639,242.052979 135.539871,248.881165 
	C136.783508,254.839386 133.324783,260.233215 126.113129,263.069824 
z"/>
<path fill="#F4FDFE" opacity="1.000000" stroke="none" 
	d="
M388.010773,502.508118 
	C394.486938,503.106476 398.571899,506.150574 400.225037,512.189026 
	C401.628967,517.317261 399.683167,521.378906 395.901184,524.576538 
	C392.003876,527.871826 387.462433,528.324707 382.870300,526.135742 
	C378.258942,523.937683 375.851257,520.086304 375.877594,514.984009 
	C375.904938,509.682465 378.428436,505.786407 383.321716,503.628082 
	C384.662933,503.036469 386.189941,502.866028 388.010773,502.508118 
z"/>
<path fill="#F4FDFE" opacity="1.000000" stroke="none" 
	d="
M398.408691,610.071411 
	C391.469482,619.817322 379.762604,615.672424 376.862671,609.007629 
	C374.652405,603.927856 375.502869,598.132202 379.473816,594.422485 
	C383.478668,590.681091 388.917847,589.998535 393.747253,592.631226 
	C398.640350,595.298645 401.168579,600.611877 400.014709,606.044983 
	C399.743378,607.322632 399.109406,608.523254 398.408691,610.071411 
z"/>
<path fill="#F3FDFE" opacity="1.000000" stroke="none" 
	d="
M388.057739,134.156570 
	C379.901489,132.959122 375.641388,128.330246 375.854675,121.351440 
	C376.042267,115.214233 380.961365,109.985443 387.094513,109.403915 
	C393.208984,108.824158 399.066101,113.327110 400.474731,119.690567 
	C402.049347,126.803886 396.853912,133.067459 388.057739,134.156570 
z"/>
<path fill="#F3FDFE" opacity="1.000000" stroke="none" 
	d="
M394.120789,22.618744 
	C400.007568,27.194613 401.674713,32.320866 399.398102,38.032726 
	C397.504089,42.784660 392.114044,46.193562 387.162262,45.771198 
	C381.324768,45.273296 376.596039,40.988716 375.650452,35.083210 
	C374.904297,30.423176 376.610840,26.535641 380.271484,23.682272 
	C384.434937,20.436966 389.015198,19.965935 394.120789,22.618744 
z"/>
<path fill="#F4FDFE" opacity="1.000000" stroke="none" 
	d="
M238.234573,37.170059 
	C237.083115,28.914427 240.152039,23.293306 246.536835,21.342627 
	C252.071487,19.651678 258.662292,22.627647 261.163422,27.947027 
	C264.096649,34.185371 261.632294,41.437889 255.541000,44.493786 
	C249.002167,47.774208 242.281387,45.063301 238.234573,37.170059 
z"/>
<path fill="#F3FDFE" opacity="1.000000" stroke="none" 
	d="
M245.540924,110.308243 
	C252.767715,108.606369 258.298431,110.844269 261.102295,116.316597 
	C263.737579,121.459885 262.331970,127.948502 257.794220,131.587555 
	C253.503891,135.028198 247.029251,135.084854 242.510406,131.721298 
	C235.011215,126.139343 236.320648,115.739120 245.540924,110.308243 
z"/>
<path fill="#F3FDFE" opacity="1.000000" stroke="none" 
	d="
M252.236343,502.873413 
	C259.841064,505.387390 263.431732,510.658569 262.222656,517.035950 
	C261.059082,523.173340 255.985947,527.516357 250.020569,527.481995 
	C243.829834,527.446228 238.682251,522.867371 237.773071,516.518494 
	C236.554260,508.007599 244.576096,501.099365 252.236343,502.873413 
z"/>
<path fill="#F4FDFE" opacity="1.000000" stroke="none" 
	d="
M239.634369,610.166931 
	C236.449783,604.606201 236.918945,599.545288 240.884308,595.120300 
	C244.091248,591.541687 248.335541,590.097534 253.110764,591.413208 
	C258.470062,592.889893 261.459015,596.614685 262.350494,602.047791 
	C263.154999,606.950989 260.078979,612.465271 255.340378,614.697205 
	C249.881393,617.268433 244.932404,615.914978 239.634369,610.166931 
z"/>
<path fill="#F5FDFE" opacity="1.000000" stroke="none" 
	d="
M106.234383,123.963882 
	C101.110466,120.738434 98.826416,116.458313 99.849030,110.762589 
	C100.755997,105.711044 103.900452,102.374672 108.778481,101.139534 
	C113.809120,99.865761 118.313866,101.163033 121.688660,105.375847 
	C125.040024,109.559395 125.172562,115.901802 122.029716,120.197906 
	C118.397972,125.162308 113.383202,126.437836 106.234383,123.963882 
z"/>
<path fill="#F3FDFE" opacity="1.000000" stroke="none" 
	d="
M99.732666,525.480042 
	C99.991730,517.308777 103.943970,512.400208 110.618721,511.481567 
	C116.042564,510.735107 122.070297,514.610779 123.802872,519.958679 
	C125.979683,526.677795 122.249260,533.681458 115.454056,535.633179 
	C108.297134,537.688782 102.078247,533.796692 99.732666,525.480042 
z"/>
<path fill="#F3FDFE" opacity="1.000000" stroke="none" 
	d="
M517.918701,533.217163 
	C513.068665,527.627869 512.291199,522.526062 515.279114,517.572693 
	C518.030273,513.012024 523.461121,510.608093 528.453674,511.741150 
	C533.921021,512.981934 537.803589,517.259827 538.273132,522.820496 
	C538.665222,527.464172 536.985535,531.372681 533.059570,533.907532 
	C528.112305,537.101807 523.061279,536.897339 517.918701,533.217163 
z"/>
<path fill="#F3FDFE" opacity="1.000000" stroke="none" 
	d="
M535.233215,104.856628 
	C539.051514,109.921143 539.435120,114.984703 536.158142,119.939018 
	C533.254456,124.328888 528.924194,126.143875 523.656128,125.185379 
	C518.498413,124.246948 514.838928,120.514427 513.747253,115.275475 
	C512.741150,110.447319 515.093750,105.198128 519.483948,102.475845 
	C524.255005,99.517410 529.876465,100.282318 535.233215,104.856628 
z"/>
</svg>